<?xml version="1.0" encoding="UTF-8" standalone="no"?>
<svg
   xmlns:dc="http://purl.org/dc/elements/1.1/"
   xmlns:cc="http://creativecommons.org/ns#"
   xmlns:rdf="http://www.w3.org/1999/02/22-rdf-syntax-ns#"
   xmlns:svg="http://www.w3.org/2000/svg"
   xmlns="http://www.w3.org/2000/svg"
   xmlns:sodipodi="http://sodipodi.sourceforge.net/DTD/sodipodi-0.dtd"
   xmlns:inkscape="http://www.inkscape.org/namespaces/inkscape"
   viewBox="0 0 693.4012 394.76208"
   height="104.44748mm"
   width="183.4624mm"
   xml:space="preserve"
   id="svg2"
   version="1.1"
   sodipodi:docname="lord-and-savior-edited3.svg"
   inkscape:version="1.0.1 (3bc2e813f5, 2020-09-07)"><sodipodi:namedview
     pagecolor="#ffffff"
     bordercolor="#666666"
     borderopacity="1"
     objecttolerance="10"
     gridtolerance="10"
     guidetolerance="10"
     inkscape:pageopacity="0"
     inkscape:pageshadow="2"
     inkscape:window-width="1718"
     inkscape:window-height="849"
     id="namedview710"
     showgrid="false"
     inkscape:zoom="0.58261786"
     inkscape:cx="346.66279"
     inkscape:cy="537.53851"
     inkscape:window-x="0"
     inkscape:window-y="27"
     inkscape:window-maximized="1"
     inkscape:current-layer="svg2"
     units="mm"
     height="147mm"
     inkscape:document-rotation="0"
     fit-margin-top="0"
     fit-margin-left="0"
     fit-margin-right="0"
     fit-margin-bottom="0" /><metadata
     id="metadata8"><rdf:RDF><cc:Work
         rdf:about=""><dc:format>image/svg+xml</dc:format><dc:type
           rdf:resource="http://purl.org/dc/dcmitype/StillImage" /><dc:title></dc:title></cc:Work></rdf:RDF></metadata><defs
     id="defs6"><clipPath
       id="clipPath18"
       clipPathUnits="userSpaceOnUse"><path
         style="clip-rule:evenodd"
         id="path16"
         d="M 0,0.028 H 595.19 V 841.889 H 0 Z" /></clipPath><clipPath
       clipPathUnits="userSpaceOnUse"
       id="clipPath1377"><rect
         style="fill:#0000ff;fill-rule:evenodd;stroke-width:0.75"
         id="rect1379"
         width="520.0509"
         height="296.07159"
         x="41.764271"
         y="-739.5603"
         transform="scale(1,-1)" /></clipPath></defs><g
     transform="matrix(1.3333333,0,0,-1.3333333,-55.685693,1110.0804)"
     id="g10"><g
       id="g12"
       clip-path="url(#clipPath1377)"
       transform="translate(0,93)"><g
         clip-path="url(#clipPath18)"
         id="g14"><path
           id="path20"
           style="fill:#ffffff;fill-opacity:1;fill-rule:evenodd;stroke:none"
           d="M 0,841.889 H 595.191 V 0.028 H 0 Z" /><path
           id="path22"
           style="fill:#ffffff;fill-opacity:1;fill-rule:evenodd;stroke:none"
           d="M 0,841.889 H 595.247 V -0.001 H 0 Z" /><g
           id="g24"><text
   id="text28"
   style="font-variant:normal;font-weight:normal;font-size:24.009px;font-family:BitstreamVeraSans;-inkscape-font-specification:BitstreamVeraSans-Roman;writing-mode:lr-tb;fill:#000000;fill-opacity:1;fill-rule:nonzero;stroke:none"
   transform="matrix(1,0,0,-1,208.403,720.198)"><tspan
     id="tspan26"
     y="0"
     x="0 13.108914 27.994493 37.598095 52.987862 60.670742 75.460289 90.657982 105.95171 113.56257 128.85631 143.5498 157.73914 164.41364 179.10715">Lord and Savior</tspan></text>
</g><g
           id="g30"><text
   id="text34"
   style="font-variant:normal;font-weight:normal;font-size:14.003px;font-family:BitstreamVeraSans;-inkscape-font-specification:BitstreamVeraSans-Roman;writing-mode:lr-tb;fill:#000000;fill-opacity:1;fill-rule:nonzero;stroke:none"
   transform="matrix(1,0,0,-1,228.189,703.785)"><tspan
     id="tspan32"
     y="0"
     x="0 8.8919048 14.591126 18.581982 27.473886 36.071728 40.062584 43.955418 52.637276 57.034218 65.43602 71.135239 79.929123 88.82103 97.712936 105.40058 110.88976 114.88062 123.46445 132.35635">Eribella Productions</tspan></text>
</g><g
           id="g36"><path
             id="path38"
             style="fill:none;stroke:#000000;stroke-width:0.59526;stroke-linecap:butt;stroke-linejoin:miter;stroke-miterlimit:3.8637;stroke-dasharray:none;stroke-opacity:1"
             d="M 48.756,640.998 H 546.52" /></g><g
           id="g40"><path
             id="path42"
             style="fill:none;stroke:#000000;stroke-width:0.59526;stroke-linecap:butt;stroke-linejoin:miter;stroke-miterlimit:3.8637;stroke-dasharray:none;stroke-opacity:1"
             d="M 48.756,636.037 H 546.52" /></g><g
           id="g44"><path
             id="path46"
             style="fill:none;stroke:#000000;stroke-width:0.59526;stroke-linecap:butt;stroke-linejoin:miter;stroke-miterlimit:3.8637;stroke-dasharray:none;stroke-opacity:1"
             d="M 48.756,631.076 H 546.52" /></g><g
           id="g48"><path
             id="path50"
             style="fill:none;stroke:#000000;stroke-width:0.59526;stroke-linecap:butt;stroke-linejoin:miter;stroke-miterlimit:3.8637;stroke-dasharray:none;stroke-opacity:1"
             d="M 48.756,626.116 H 546.52" /></g><g
           id="g52"><path
             id="path54"
             style="fill:none;stroke:#000000;stroke-width:0.59526;stroke-linecap:butt;stroke-linejoin:miter;stroke-miterlimit:3.8637;stroke-dasharray:none;stroke-opacity:1"
             d="M 48.756,621.155 H 546.52" /></g><path
           id="path56"
           style="fill:#000000;fill-opacity:1;fill-rule:evenodd;stroke:none"
           d="m 90.539,666.283 c 9.609,-0.057 19.36,-2.835 28.998,-9.978 v -0.992 c -9.638,5.896 -19.389,8.73 -28.998,9.978 z" /><path
           id="path58"
           style="fill:#000000;fill-opacity:1;fill-rule:evenodd;stroke:none"
           d="m 135.213,651.401 c 9.184,4.96 18.368,6.378 27.552,4.989 v -0.992 c -9.184,0.17 -18.368,-1.219 -27.552,-5.018 z" /><path
           id="path60"
           style="fill:#000000;fill-opacity:1;fill-rule:evenodd;stroke:none"
           d="m 249.619,650.125 c 10.006,2.863 19.984,2.495 29.962,-1.304 v -0.992 c -9.978,2.551 -19.956,2.977 -29.962,1.304 z" /><path
           id="path62"
           style="fill:#000000;fill-opacity:1;fill-rule:evenodd;stroke:none"
           d="m 333.326,616.676 c 17.433,-5.924 34.781,-7.341 52.129,-5.017 v -0.992 c -17.348,-3.515 -34.696,-2.098 -52.129,5.017 z" /><path
           id="path64"
           style="fill:#000000;fill-opacity:1;fill-rule:evenodd;stroke:none"
           d="m 431.348,619.171 c 15.392,-5.386 30.699,-6.803 46.006,-5.017 v -0.993 c -15.307,-2.976 -30.614,-1.559 -46.006,5.018 z" /><path
           id="path66"
           style="fill:#000000;fill-opacity:1;fill-rule:evenodd;stroke:none"
           d="m 60.576,644.824 c -1.275,0 -2.664,-1.899 -2.664,-4.989 0,-0.652 0,-1.332 0.085,-1.842 0.057,-0.255 0.142,-0.284 0.255,-0.142 0.482,0.397 0.964,0.851 1.276,1.162 1.615,1.531 2.267,2.807 2.267,4.196 0,1.077 -0.567,1.615 -1.219,1.615 z m -0.85,-16.667 1.02,-5.67 c 0.057,-0.226 0.085,-0.226 0.312,-0.113 1.134,0.567 1.871,1.587 1.871,2.835 0,1.729 -1.304,3.089 -2.92,3.231 -0.283,0 -0.283,-0.057 -0.283,-0.283 z m -1.332,3.146 -0.425,2.551 c -0.057,0.227 -0.114,0.227 -0.312,0.085 -0.907,-0.765 -1.814,-1.502 -3.005,-2.834 -1.644,-1.871 -1.871,-3.43 -1.871,-4.592 0,-2.75 2.268,-4.678 5.726,-4.678 0.397,0 0.794,0.029 1.134,0.085 0.34,0.057 0.34,0.057 0.34,0.284 l -1.077,5.924 c -0.028,0.199 -0.085,0.227 -0.397,0.142 -1.19,-0.34 -1.984,-1.19 -1.984,-2.324 0,-0.907 0.595,-1.758 1.446,-2.126 0.113,-0.057 0.283,-0.114 0.283,-0.255 0,-0.114 -0.085,-0.199 -0.255,-0.199 -0.142,0 -0.34,0.057 -0.51,0.114 -1.361,0.453 -2.268,1.729 -2.268,3.515 0,1.672 1.134,3.231 2.863,3.826 0.34,0.142 0.34,0.114 0.312,0.482 z m 0.255,3.033 0.51,-2.863 c 0.057,-0.368 0.057,-0.368 0.567,-0.368 2.976,0 4.847,-2.24 4.847,-4.762 0,-2.268 -1.304,-3.941 -3.345,-4.734 -0.255,-0.114 -0.255,-0.114 -0.255,-0.34 0.255,-1.219 0.567,-3.119 0.567,-4.252 0,-3.43 -2.636,-4.026 -3.94,-4.026 -2.976,0 -3.77,1.956 -3.77,3.289 0,1.247 0.794,2.296 2.126,2.296 1.219,0 1.871,-0.936 1.871,-2.041 0,-1.191 -0.709,-1.729 -1.304,-1.9 -0.482,-0.141 -0.652,-0.198 -0.652,-0.34 0,-0.255 0.51,-0.595 1.616,-0.595 1.162,0 3.174,0.369 3.174,3.373 0,0.936 -0.255,2.636 -0.51,3.969 -0.057,0.255 -0.085,0.227 -0.368,0.198 -0.397,-0.085 -0.879,-0.142 -1.361,-0.142 -4.847,0 -7.228,3.289 -7.228,6.747 0,2.126 0.85,3.968 2.211,5.669 1.077,1.276 2.438,2.466 3.685,3.544 0.255,0.198 0.255,0.226 0.17,0.453 -0.142,0.822 -0.255,2.126 -0.255,3.26 0,2.069 0.482,4.535 1.956,6.179 0.368,0.426 1.048,0.936 1.332,0.936 0.198,0 0.737,-0.539 1.02,-0.992 0.822,-1.191 1.304,-2.892 1.304,-4.621 0,-2.239 -0.992,-4.592 -2.636,-6.406 -0.453,-0.425 -0.85,-0.85 -1.19,-1.134 -0.142,-0.142 -0.142,-0.142 -0.142,-0.397 z" /><path
           id="path68"
           style="fill:#000000;fill-opacity:1;fill-rule:evenodd;stroke:none"
           d="m 78.888,634.506 h 1.474 c 0.227,0 0.312,-0.113 0.312,-0.368 0,-0.227 -0.142,-0.369 -0.312,-0.369 h -1.474 v -1.162 c 0,-0.652 0.425,-0.765 0.652,-0.765 0.17,0 0.397,-0.114 0.397,-0.397 0,-0.284 -0.17,-0.425 -0.397,-0.425 h -4.195 c -0.312,0 -0.397,0.226 -0.397,0.425 0,0.198 0.17,0.368 0.482,0.368 0.34,0 0.765,0.17 0.765,0.709 v 1.247 h -3.713 c -0.255,0 -0.425,0.142 -0.425,0.34 0,0.057 0,0.142 0.085,0.199 0,0.028 0,0.057 0,0.085 l 0.113,0.142 c 0.652,0.85 2.608,3.628 2.608,6.123 0,0.311 0.255,0.368 0.425,0.368 0.17,0 1.077,-0.028 1.446,-0.028 0.34,0 1.162,0.028 1.332,0.028 0.17,0 0.312,-0.113 0.312,-0.283 0,-0.029 0,-0.057 0,-0.085 -0.085,-0.227 -3.26,-4.791 -4.876,-6.152 h 2.693 v 1.673 c 0,0.255 0.085,0.368 0.17,0.453 l 1.928,2.353 c 0.113,0.142 0.198,0.17 0.368,0.17 0.227,0 0.227,-0.17 0.227,-0.34 z" /><path
           id="path70"
           style="fill:#000000;fill-opacity:1;fill-rule:evenodd;stroke:none"
           d="m 78.888,624.585 h 1.474 c 0.227,0 0.312,-0.142 0.312,-0.397 0,-0.227 -0.142,-0.368 -0.312,-0.368 h -1.474 v -1.162 c 0,-0.652 0.425,-0.766 0.652,-0.766 0.17,0 0.397,-0.113 0.397,-0.397 0,-0.283 -0.17,-0.397 -0.397,-0.397 h -4.195 c -0.312,0 -0.397,0.199 -0.397,0.397 0,0.199 0.17,0.397 0.482,0.397 0.34,0 0.765,0.142 0.765,0.68 v 1.248 h -3.713 c -0.255,0 -0.425,0.141 -0.425,0.34 0,0.057 0,0.142 0.085,0.227 0,0 0,0.028 0,0.056 l 0.113,0.142 c 0.652,0.85 2.608,3.6 2.608,6.123 0,0.312 0.255,0.368 0.425,0.368 0.17,0 1.077,-0.028 1.446,-0.028 0.34,0 1.162,0.028 1.332,0.028 0.17,0 0.312,-0.113 0.312,-0.283 0,-0.028 0,-0.057 0,-0.085 -0.085,-0.227 -3.26,-4.791 -4.876,-6.123 h 2.693 v 1.673 c 0,0.226 0.085,0.34 0.17,0.453 l 1.928,2.324 c 0.113,0.142 0.198,0.171 0.368,0.171 0.227,0 0.227,-0.171 0.227,-0.312 z" /><g
           id="g72"><text
   id="text76"
   style="font-variant:normal;font-weight:normal;font-size:10.006px;font-family:BitstreamVeraSans;-inkscape-font-specification:BitstreamVeraSans-Roman;writing-mode:lr-tb;fill:#000000;fill-opacity:1;fill-rule:nonzero;stroke:none"
   transform="matrix(1,0,0,-1,48.813,688.478)"><tspan
     id="tspan74"
     y="0"
     x="0 6.2037201 10.30618 13.097854 18.891329 21.993189 28.797268 31.588942">Erik Alm</tspan></text>
</g><g
           id="g78"><path
             id="path80"
             style="fill:none;stroke:#000000;stroke-width:0.56692;stroke-linecap:butt;stroke-linejoin:miter;stroke-miterlimit:3.8637;stroke-dasharray:none;stroke-opacity:1"
             d="m 96.066,631.898 v 16.526" /></g><path
           id="path82"
           style="fill:#000000;fill-opacity:1;fill-rule:evenodd;stroke:none"
           d="m 99.326,654.831 h -5.839 c -0.482,0 -0.482,0.198 -0.482,0.482 0,0.255 0,0.453 0.482,0.453 h 5.839 c 0.425,0 0.425,-0.198 0.425,-0.453 0,-0.284 0,-0.482 -0.425,-0.482 z m -2.069,-3.033 c 0,-0.454 -0.397,-0.851 -0.822,-0.851 -0.482,0 -0.822,0.397 -0.822,0.851 0,0.453 0.34,0.822 0.822,0.822 0.425,0 0.822,-0.369 0.822,-0.822 z" /><path
           id="path84"
           style="fill:#000000;fill-opacity:1;fill-rule:evenodd;stroke:none"
           d="m 96.576,663.165 2.183,-4.649 c 0,-0.029 0,-0.057 0,-0.085 0,-0.142 -0.085,-0.199 -0.227,-0.227 H 97.2 c -0.085,0 -0.17,0.028 -0.227,0.113 0,0 -1.19,2.381 -1.19,2.466 -0.057,0.057 -0.057,0.057 -0.142,0.057 0,0 -0.028,0 -0.085,-0.057 0,-0.085 -1.077,-2.466 -1.077,-2.466 -0.057,-0.085 -0.17,-0.141 -0.227,-0.141 0,0 -0.085,0 -0.085,0.028 -0.085,0.028 -0.17,0.113 -0.17,0.227 0,0.028 0,0.056 0.057,0.085 l 2.126,4.649 c 0,0 0.028,0.113 0.198,0.113 0.113,0 0.17,-0.028 0.198,-0.113 z" /><path
           id="path86"
           style="fill:#000000;fill-opacity:1;fill-rule:evenodd;stroke:none"
           d="m 92.438,628.525 c -1.049,0 -1.899,0.624 -1.899,1.673 0,1.757 1.729,3.345 3.94,3.345 1.077,0 1.927,-0.624 1.927,-1.645 0,-1.7 -2.182,-3.373 -3.968,-3.373 z" /><g
           id="g88"><text
   id="text92"
   style="font-variant:normal;font-weight:normal;font-size:10.006px;font-family:BitstreamVeraSans;-inkscape-font-specification:BitstreamVeraSans-Roman;writing-mode:lr-tb;fill:#000000;fill-opacity:1;fill-rule:nonzero;stroke:none"
   transform="matrix(1,0,0,-1,464.91,688.478)"><tspan
     id="tspan90"
     y="0"
     x="0 2.9017401 8.1048603 14.20852 20.5123 26.706015 29.407635 32.199306 38.302967 41.404827 50.009987 56.203701 60.106041 65.799454 71.903114 74.604736 77.396408">Isabella Marcolin</tspan></text>
</g><g
           id="g94"><path
             id="path96"
             style="fill:none;stroke:#000000;stroke-width:0.56692;stroke-linecap:butt;stroke-linejoin:miter;stroke-miterlimit:3.8637;stroke-dasharray:none;stroke-opacity:1"
             d="m 119.197,636.859 v 16.526" /></g><path
           id="path98"
           style="fill:#000000;fill-opacity:1;fill-rule:evenodd;stroke:none"
           d="m 115.625,633.486 c -1.077,0 -1.984,0.623 -1.984,1.672 0,1.758 1.814,3.345 3.968,3.345 1.134,0 1.928,-0.623 1.928,-1.644 0,-1.701 -2.183,-3.373 -3.912,-3.373 z" /><g
           id="g100"><text
   id="text104"
   style="font-variant:normal;font-weight:normal;font-size:10.998px;font-family:BitstreamVeraSans;-inkscape-font-specification:BitstreamVeraSans-Roman;writing-mode:lr-tb;fill:#000000;fill-opacity:1;fill-rule:nonzero;stroke:none"
   transform="matrix(1,0,0,-1,87.704,597.486)"><tspan
     id="tspan102"
     y="0"
     x="0 3.200418">Je</tspan></text>
</g><g
           id="g106"><path
             id="path108"
             style="fill:none;stroke:#000000;stroke-width:0.56692;stroke-linecap:butt;stroke-linejoin:miter;stroke-miterlimit:3.8637;stroke-dasharray:none;stroke-opacity:1"
             d="m 140.769,631.898 v 16.526" /></g><path
           id="path110"
           style="fill:#000000;fill-opacity:1;fill-rule:evenodd;stroke:none"
           d="m 137.112,628.525 c -1.049,0 -1.899,0.624 -1.899,1.673 0,1.757 1.729,3.345 3.968,3.345 1.134,0 1.899,-0.624 1.899,-1.645 0,-1.7 -2.126,-3.373 -3.968,-3.373 z" /><g
           id="g112"><text
   id="text116"
   style="font-variant:normal;font-weight:normal;font-size:10.998px;font-family:BitstreamVeraSans;-inkscape-font-specification:BitstreamVeraSans-Roman;writing-mode:lr-tb;fill:#000000;fill-opacity:1;fill-rule:nonzero;stroke:none"
   transform="matrix(1,0,0,-1,108.113,597.486)"><tspan
     id="tspan114"
     y="0"
     x="0 5.7849479 12.680694">sus</tspan></text>
</g><g
           id="g118"><path
             id="path120"
             style="fill:none;stroke:#000000;stroke-width:0.56692;stroke-linecap:butt;stroke-linejoin:miter;stroke-miterlimit:3.8637;stroke-dasharray:none;stroke-opacity:1"
             d="m 162.397,636.859 v 16.526" /></g><path
           id="path122"
           style="fill:#000000;fill-opacity:1;fill-rule:evenodd;stroke:none"
           d="m 158.797,633.486 c -1.077,0 -1.956,0.623 -1.956,1.672 0,1.758 1.786,3.345 3.997,3.345 1.162,0 1.927,-0.623 1.927,-1.644 0,-1.701 -2.182,-3.373 -3.968,-3.373 z" /><g
           id="g124"><text
   id="text128"
   style="font-variant:normal;font-weight:normal;font-size:10.998px;font-family:BitstreamVeraSans;-inkscape-font-specification:BitstreamVeraSans-Roman;writing-mode:lr-tb;fill:#000000;fill-opacity:1;fill-rule:nonzero;stroke:none"
   transform="matrix(1,0,0,-1,133.909,597.486)"><tspan
     id="tspan126"
     y="0"
     x="0 3.0904379">is</tspan></text>
</g><g
           id="g130"><path
             id="path132"
             style="fill:none;stroke:#000000;stroke-width:0.76534;stroke-linecap:butt;stroke-linejoin:miter;stroke-miterlimit:3.8637;stroke-dasharray:none;stroke-opacity:1"
             d="M 177.591,640.998 V 621.155" /></g><path
           id="path134"
           style="fill:#000000;fill-opacity:1;fill-rule:evenodd;stroke:none"
           d="m 55.871,673.058 c -1.219,-0.738 -1.644,-1.248 -1.644,-1.645 0,-0.113 0.028,-0.255 0.085,-0.368 0.17,-0.199 0.397,-0.397 0.737,-0.397 0.397,0 0.992,0.198 1.899,0.737 1.247,0.85 1.644,1.304 1.644,1.644 0,0.142 -0.057,0.255 -0.142,0.369 -0.113,0.226 -0.283,0.368 -0.652,0.368 -0.368,0 -0.935,-0.17 -1.927,-0.708 z m 3.288,10.091 v -10.148 c 0,-0.624 -0.624,-3.062 -3.713,-3.062 -0.964,0 -1.729,0.539 -1.729,1.503 0,0.964 0.85,3.09 3.656,3.09 0.51,0 0.964,-0.142 1.304,-0.426 v 9.043 z" /><g
           id="g136"><text
   id="text140"
   style="font-variant:normal;font-weight:normal;font-size:10.998px;font-family:BitstreamVeraSans;-inkscape-font-specification:BitstreamVeraSans-Roman;writing-mode:lr-tb;fill:#000000;fill-opacity:1;fill-rule:nonzero;stroke:none"
   transform="matrix(1,0,0,-1,151.313,597.486)"><tspan
     id="tspan138"
     y="0"
     x="0 6.697782 13.681512">our</tspan></text>
</g><g
           id="g142"><text
   id="text146"
   style="font-variant:normal;font-weight:normal;font-size:10.998px;font-family:BitstreamVeraSans;-inkscape-font-specification:BitstreamVeraSans-Roman;writing-mode:lr-tb;fill:#000000;fill-opacity:1;fill-rule:nonzero;stroke:none"
   transform="matrix(1,0,0,-1,101.906,597.486)"><tspan
     id="tspan144"
     y="0"
     x="0">-</tspan></text>
</g><g
           id="g148"><path
             id="path150"
             style="fill:none;stroke:#000000;stroke-width:0.56692;stroke-linecap:butt;stroke-linejoin:miter;stroke-miterlimit:3.8637;stroke-dasharray:none;stroke-opacity:1"
             d="M 194.797,630.226 V 613.7" /></g><path
           id="path152"
           style="fill:#000000;fill-opacity:1;fill-rule:evenodd;stroke:none"
           d="m 200.324,637.993 h -5.839 c -0.425,0 -0.425,0.227 -0.425,0.51 0,0.255 0,0.482 0.425,0.482 h 5.839 c 0.482,0 0.482,-0.227 0.482,-0.482 0,-0.283 0,-0.51 -0.482,-0.51 z" /><path
           id="path154"
           style="fill:#000000;fill-opacity:1;fill-rule:evenodd;stroke:none"
           d="m 200.551,644.258 -6.094,-2.041 c 0,-0.029 -0.057,-0.029 -0.085,-0.029 -0.142,0 -0.227,0.17 -0.255,0.312 -0.057,0.057 -0.057,0.113 -0.057,0.17 0,0.113 0.057,0.199 0.255,0.312 0,0 4.309,1.446 4.507,1.502 0.142,0.029 0.142,0.085 0.142,0.142 0,0.057 0,0.113 -0.142,0.142 -0.17,0.056 -4.507,1.559 -4.507,1.559 -0.198,0.056 -0.255,0.17 -0.255,0.255 0,0.057 0,0.17 0.057,0.227 0.028,0.17 0.113,0.283 0.283,0.283 0,0 0.085,-0.028 0.142,-0.028 l 6.009,-2.098 c 0.312,-0.057 0.312,-0.198 0.312,-0.34 0,-0.17 0,-0.312 -0.312,-0.368 z" /><path
           id="path156"
           style="fill:#000000;fill-opacity:1;fill-rule:evenodd;stroke:none"
           d="m 196.441,628.525 c -1.077,0 -1.956,0.624 -1.956,1.673 0,1.757 1.786,3.345 3.997,3.345 1.105,0 1.899,-0.624 1.899,-1.645 0,-1.7 -2.126,-3.373 -3.94,-3.373 z" /><g
           id="g158"><text
   id="text162"
   style="font-variant:normal;font-weight:normal;font-size:10.913px;font-family:BitstreamVeraSans;-inkscape-font-specification:BitstreamVeraSans-Roman;writing-mode:lr-tb;fill:#000000;fill-opacity:1;fill-rule:nonzero;stroke:none"
   transform="matrix(1,0,0,-1,61.087,671.498)"><tspan
     id="tspan160"
     y="0"
     x="0 9.1123552 12.604515 19.512444">= 85</tspan></text>
</g><g
           id="g164"><path
             id="path166"
             style="fill:none;stroke:#000000;stroke-width:0.56692;stroke-linecap:butt;stroke-linejoin:miter;stroke-miterlimit:3.8637;stroke-dasharray:none;stroke-opacity:1"
             d="M 227.197,635.187 V 618.661" /></g><path
           id="path168"
           style="fill:#000000;fill-opacity:1;fill-rule:evenodd;stroke:none"
           d="m 232.951,644.258 -6.094,-2.041 c -0.057,-0.029 -0.057,-0.029 -0.085,-0.029 -0.142,0 -0.227,0.17 -0.312,0.312 0,0.057 0,0.113 0,0.17 0,0.113 0.057,0.199 0.255,0.312 0,0 4.252,1.446 4.479,1.502 0.085,0.029 0.17,0.085 0.17,0.142 0,0.057 -0.085,0.113 -0.17,0.142 -0.17,0.056 -4.479,1.559 -4.479,1.559 -0.198,0.056 -0.255,0.17 -0.255,0.255 0,0.057 0,0.17 0,0.227 0.085,0.17 0.142,0.283 0.34,0.283 0,0 0.057,-0.028 0.142,-0.028 l 6.009,-2.098 c 0.255,-0.057 0.255,-0.198 0.255,-0.34 0,-0.17 0,-0.312 -0.255,-0.368 z" /><path
           id="path170"
           style="fill:#000000;fill-opacity:1;fill-rule:evenodd;stroke:none"
           d="m 228.813,633.486 c -1.106,0 -1.956,0.623 -1.956,1.672 0,1.758 1.786,3.345 3.997,3.345 1.133,0 1.927,-0.623 1.927,-1.644 0,-1.701 -2.239,-3.373 -3.968,-3.373 z" /><g
           id="g172"><path
             id="path174"
             style="fill:none;stroke:#000000;stroke-width:0.56692;stroke-linecap:butt;stroke-linejoin:miter;stroke-miterlimit:3.8637;stroke-dasharray:none;stroke-opacity:1"
             d="M 249.931,630.226 V 616.195" /></g><path
           id="path176"
           style="fill:#000000;fill-opacity:1;fill-rule:evenodd;stroke:none"
           d="m 252.765,647.149 2.126,-4.649 c 0.057,-0.028 0.057,-0.057 0.057,-0.113 0,-0.114 -0.085,-0.199 -0.227,-0.199 h -1.332 c -0.085,0 -0.17,0.029 -0.227,0.114 0,0 -1.134,2.409 -1.134,2.494 -0.028,0.028 -0.085,0.057 -0.113,0.057 -0.057,0 -0.057,-0.029 -0.085,-0.057 -0.057,-0.085 -1.162,-2.494 -1.162,-2.494 -0.057,-0.114 -0.142,-0.142 -0.227,-0.142 0,0 -0.085,0 -0.085,0.028 -0.085,0 -0.17,0.114 -0.17,0.199 0,0.056 0,0.056 0,0.113 l 2.211,4.649 c 0,0 0.028,0.113 0.198,0.113 0.057,0 0.085,-0.056 0.17,-0.113 z" /><path
           id="path178"
           style="fill:#000000;fill-opacity:1;fill-rule:evenodd;stroke:none"
           d="m 251.575,628.525 c -1.077,0 -1.956,0.624 -1.956,1.673 0,1.757 1.729,3.345 3.912,3.345 1.162,0 2.012,-0.624 2.012,-1.645 0,-1.7 -2.239,-3.373 -3.968,-3.373 z" /><path
           id="path180"
           style="fill:#000000;fill-opacity:1;fill-rule:evenodd;stroke:none"
           d="m 264.784,633.174 v -0.198 c 0.709,0 1.701,1.19 1.814,1.332 0.142,0.085 0.227,0.085 0.227,0.085 0.085,-0.028 0.255,-0.113 0.255,-0.34 0,-0.114 -0.113,-0.425 -0.17,-0.794 0,0 -1.984,-6.973 -2.041,-7.03 -0.198,-0.142 -0.51,-0.198 -0.737,-0.198 -0.085,0 -0.567,0.028 -0.567,0.255 0.397,1.332 1.786,5.301 1.871,5.584 0,0.085 0,0.17 0,0.227 0,0.085 0,0.17 -0.085,0.17 h -0.085 c -0.255,-0.142 -0.482,-0.227 -0.737,-0.312 -0.227,-0.085 -0.482,-0.142 -0.794,-0.142 -0.17,0 -0.34,0.057 -0.51,0.085 -0.17,0.029 -0.34,0.142 -0.51,0.256 -0.312,0.226 -0.595,0.595 -0.595,1.02 0,0.737 0.623,1.361 1.36,1.361 0.737,0 1.304,-0.624 1.304,-1.361 z" /><g
           id="g182"><text
   id="text186"
   style="font-variant:normal;font-weight:normal;font-size:10.998px;font-family:BitstreamVeraSans;-inkscape-font-specification:BitstreamVeraSans-Roman;writing-mode:lr-tb;fill:#000000;fill-opacity:1;fill-rule:nonzero;stroke:none"
   transform="matrix(1,0,0,-1,185.414,597.486)"><tspan
     id="tspan184"
     y="0"
     x="0 5.9939098 12.878658 17.277859">Lord</tspan></text>
</g><path
           id="path188"
           style="fill:#000000;fill-opacity:1;fill-rule:evenodd;stroke:none"
           d="m 283.691,630.226 c -0.085,-0.34 -0.425,-0.454 -0.567,-0.368 -0.113,0.056 -0.283,0.255 -0.283,0.566 0,0.085 0.028,0.171 0.028,0.284 0.34,0.907 0.482,1.842 0.482,2.721 0,1.191 -0.17,2.296 -0.482,2.977 -0.68,1.7 -2.579,4.45 -3.968,4.677 v 4.762 c 0,0.227 0.085,0.283 0.255,0.283 0.397,0 0.51,-0.113 0.567,-0.425 0.34,-1.899 1.162,-3.628 2.211,-5.187 1.247,-2.041 2.296,-4.394 2.296,-6.86 0,-1.559 -0.539,-3.43 -0.539,-3.43 z" /><g
           id="g190"><path
             id="path192"
             style="fill:none;stroke:#000000;stroke-width:0.56692;stroke-linecap:butt;stroke-linejoin:miter;stroke-miterlimit:3.8637;stroke-dasharray:none;stroke-opacity:1"
             d="m 279.241,629.432 v 16.526" /></g><path
           id="path194"
           style="fill:#000000;fill-opacity:1;fill-rule:evenodd;stroke:none"
           d="m 275.613,626.059 c -1.106,0 -1.956,0.624 -1.956,1.644 0,1.701 1.729,3.373 3.94,3.373 1.162,0 1.984,-0.68 1.984,-1.7 0,-1.701 -2.211,-3.317 -3.968,-3.317 z" /><g
           id="g196"><text
   id="text200"
   style="font-variant:normal;font-weight:normal;font-size:10.998px;font-family:BitstreamVeraSans;-inkscape-font-specification:BitstreamVeraSans-Roman;writing-mode:lr-tb;fill:#000000;fill-opacity:1;fill-rule:nonzero;stroke:none"
   transform="matrix(1,0,0,-1,220.309,597.486)"><tspan
     id="tspan198"
     y="0"
     x="0 6.697782 13.681512 20.577257 24.063623 31.047354">and Sa</tspan></text>
</g><path
           id="path202"
           style="fill:#000000;fill-opacity:1;fill-rule:evenodd;stroke:none"
           d="m 301.408,627.732 c -0.085,-0.341 -0.425,-0.454 -0.567,-0.369 -0.085,0.085 -0.312,0.255 -0.312,0.567 0,0.085 0.057,0.198 0.057,0.312 0.34,0.878 0.482,1.814 0.482,2.721 0,1.162 -0.17,2.296 -0.482,2.976 -0.737,1.673 -2.608,4.366 -3.94,4.649 v 4.762 c 0,0.256 0.085,0.312 0.198,0.312 0.397,0 0.539,-0.142 0.624,-0.453 0.312,-1.9 1.162,-3.6 2.126,-5.216 1.304,-1.984 2.352,-4.337 2.352,-6.832 0,-1.53 -0.538,-3.429 -0.538,-3.429 z" /><g
           id="g204"><path
             id="path206"
             style="fill:none;stroke:#000000;stroke-width:0.56692;stroke-linecap:butt;stroke-linejoin:miter;stroke-miterlimit:3.8637;stroke-dasharray:none;stroke-opacity:1"
             d="m 296.986,626.938 v 16.526" /></g><path
           id="path208"
           style="fill:#000000;fill-opacity:1;fill-rule:evenodd;stroke:none"
           d="m 293.301,623.565 c -1.049,0 -1.871,0.623 -1.871,1.672 0,1.758 1.701,3.345 3.912,3.345 1.19,0 1.984,-0.624 1.984,-1.644 0,-1.701 -2.211,-3.373 -4.025,-3.373 z" /><path
           id="path210"
           style="fill:#000000;fill-opacity:1;fill-rule:evenodd;stroke:none"
           d="m 311.811,633.174 v -0.198 c 0.652,0 1.672,1.19 1.814,1.332 0.142,0.085 0.17,0.085 0.255,0.085 0,-0.028 0.227,-0.113 0.227,-0.34 -0.057,-0.114 -0.142,-0.425 -0.227,-0.794 0,0 -1.927,-6.973 -2.012,-7.03 -0.227,-0.142 -0.482,-0.198 -0.709,-0.198 -0.113,0 -0.567,0.028 -0.567,0.255 0.369,1.332 1.786,5.301 1.871,5.584 0,0.085 0,0.17 0,0.227 0,0.085 0,0.17 -0.085,0.17 -0.028,0 -0.085,0 -0.113,0 -0.284,-0.142 -0.454,-0.227 -0.709,-0.312 -0.227,-0.085 -0.51,-0.142 -0.765,-0.142 -0.199,0 -0.397,0.057 -0.539,0.085 -0.17,0.029 -0.397,0.142 -0.567,0.256 -0.283,0.226 -0.567,0.595 -0.567,1.02 0,0.737 0.624,1.361 1.361,1.361 0.737,0 1.332,-0.624 1.332,-1.361 z" /><g
           id="g212"><text
   id="text216"
   style="font-variant:normal;font-weight:normal;font-size:10.998px;font-family:BitstreamVeraSans;-inkscape-font-specification:BitstreamVeraSans-Roman;writing-mode:lr-tb;fill:#000000;fill-opacity:1;fill-rule:nonzero;stroke:none"
   transform="matrix(1,0,0,-1,271.899,597.486)"><tspan
     id="tspan214"
     y="0"
     x="0 6.4998178">vi</tspan></text>
</g><g
           id="g218"><text
   id="text222"
   style="font-variant:normal;font-weight:normal;font-size:10.998px;font-family:BitstreamVeraSans;-inkscape-font-specification:BitstreamVeraSans-Roman;writing-mode:lr-tb;fill:#000000;fill-opacity:1;fill-rule:nonzero;stroke:none"
   transform="matrix(1,0,0,-1,289.191,597.486)"><tspan
     id="tspan220"
     y="0"
     x="0 6.697782">or</tspan></text>
</g><path
           id="path224"
           style="fill:#000000;fill-opacity:1;fill-rule:evenodd;stroke:none"
           d="m 226.857,618.604 v 2.551 l 22.847,-2.551 v -2.466 z" /><g
           id="g226"><path
             id="path228"
             style="fill:none;stroke:#000000;stroke-width:0.76534;stroke-linecap:butt;stroke-linejoin:miter;stroke-miterlimit:3.8637;stroke-dasharray:none;stroke-opacity:1"
             d="M 321.109,640.998 V 621.155" /></g><g
           id="g230"><text
   id="text234"
   style="font-variant:normal;font-weight:normal;font-size:10.998px;font-family:BitstreamVeraSans;-inkscape-font-specification:BitstreamVeraSans-Roman;writing-mode:lr-tb;fill:#000000;fill-opacity:1;fill-rule:nonzero;stroke:none"
   transform="matrix(1,0,0,-1,262.8,597.486)"><tspan
     id="tspan232"
     y="0"
     x="0">-</tspan></text>
</g><g
           id="g236"><path
             id="path238"
             style="fill:none;stroke:#000000;stroke-width:0.56692;stroke-linecap:butt;stroke-linejoin:miter;stroke-miterlimit:3.8637;stroke-dasharray:none;stroke-opacity:1"
             d="m 338.882,621.977 v 16.526" /></g><path
           id="path240"
           style="fill:#000000;fill-opacity:1;fill-rule:evenodd;stroke:none"
           d="m 335.254,618.604 c -1.049,0 -1.928,0.624 -1.928,1.672 0,1.758 1.729,3.345 3.94,3.345 1.162,0 1.956,-0.623 1.956,-1.644 0,-1.701 -2.154,-3.373 -3.968,-3.373 z" /><g
           id="g242"><path
             id="path244"
             style="fill:none;stroke:#000000;stroke-width:0.56692;stroke-linecap:butt;stroke-linejoin:miter;stroke-miterlimit:3.8637;stroke-dasharray:none;stroke-opacity:1"
             d="m 356.967,626.938 v 14.06" /></g><path
           id="path246"
           style="fill:#000000;fill-opacity:1;fill-rule:evenodd;stroke:none"
           d="m 353.367,623.565 c -1.077,0 -1.984,0.623 -1.984,1.672 0,1.758 1.786,3.345 4.025,3.345 1.105,0 1.899,-0.624 1.899,-1.644 0,-1.701 -2.126,-3.373 -3.94,-3.373 z" /><path
           id="path248"
           style="fill:#000000;fill-opacity:1;fill-rule:evenodd;stroke:none"
           d="m 366.406,633.174 v -0.198 c 0.652,0 1.644,1.19 1.814,1.332 0.142,0.085 0.199,0.085 0.227,0.085 0.057,-0.028 0.227,-0.113 0.227,-0.34 0,-0.114 -0.085,-0.425 -0.17,-0.794 0,0 -2.013,-6.973 -2.041,-7.03 -0.227,-0.142 -0.482,-0.198 -0.709,-0.198 -0.085,0 -0.623,0.028 -0.623,0.255 0.425,1.332 1.842,5.301 1.927,5.584 0,0.085 0,0.17 0,0.227 0,0.085 0,0.17 -0.085,0.17 -0.028,0 -0.085,0 -0.142,0 -0.255,-0.142 -0.425,-0.227 -0.68,-0.312 -0.255,-0.085 -0.482,-0.142 -0.822,-0.142 -0.198,0 -0.34,0.057 -0.51,0.085 -0.17,0.029 -0.397,0.142 -0.567,0.256 -0.283,0.226 -0.51,0.595 -0.51,1.02 0,0.737 0.567,1.361 1.304,1.361 0.765,0 1.36,-0.624 1.36,-1.361 z" /><g
           id="g250"><text
   id="text254"
   style="font-variant:normal;font-weight:normal;font-size:10.998px;font-family:BitstreamVeraSans;-inkscape-font-specification:BitstreamVeraSans-Roman;writing-mode:lr-tb;fill:#000000;fill-opacity:1;fill-rule:nonzero;stroke:none"
   transform="matrix(1,0,0,-1,283.408,597.486)"><tspan
     id="tspan252"
     y="0"
     x="0">-</tspan></text>
</g><path
           id="path256"
           style="fill:#000000;fill-opacity:1;fill-rule:evenodd;stroke:none"
           d="m 384.378,628.78 c -0.312,0.851 0.595,1.304 0.737,0.652 0.17,-0.623 0.595,-2.041 0.595,-3.571 0,-2.495 -1.247,-4.904 -2.523,-6.86 -0.992,-1.588 -2.494,-3.317 -2.834,-5.188 -0.057,-0.311 -0.17,-0.425 -0.567,-0.425 -0.142,0 -0.227,0.057 -0.227,0.284 v 4.677 c 2.693,0.879 3.685,2.494 4.422,4.223 0.312,0.652 0.765,2.325 0.765,3.487 0,0.907 -0.113,1.899 -0.368,2.721 z" /><g
           id="g258"><path
             id="path260"
             style="fill:none;stroke:#000000;stroke-width:0.56692;stroke-linecap:butt;stroke-linejoin:miter;stroke-miterlimit:3.8637;stroke-dasharray:none;stroke-opacity:1"
             d="M 379.871,630.226 V 613.7" /></g><path
           id="path262"
           style="fill:#000000;fill-opacity:1;fill-rule:evenodd;stroke:none"
           d="m 381.487,628.525 c -1.049,0 -1.928,0.624 -1.928,1.673 0,1.757 1.758,3.345 3.969,3.345 1.133,0 1.927,-0.624 1.927,-1.645 0,-1.7 -2.154,-3.373 -3.968,-3.373 z" /><path
           id="path264"
           style="fill:#000000;fill-opacity:1;fill-rule:evenodd;stroke:none"
           d="m 394.809,633.174 v -0.198 c 0.652,0 1.673,1.19 1.786,1.332 0.142,0.085 0.17,0.085 0.227,0.085 0.028,-0.028 0.255,-0.113 0.255,-0.34 -0.057,-0.114 -0.142,-0.425 -0.227,-0.794 0,0 -1.956,-6.973 -1.984,-7.03 -0.255,-0.142 -0.51,-0.198 -0.737,-0.198 -0.113,0 -0.595,0.028 -0.595,0.255 0.397,1.332 1.814,5.301 1.899,5.584 0,0.085 0,0.17 0,0.227 0,0.085 0,0.17 -0.085,0.17 0,0 -0.057,0 -0.085,0 -0.255,-0.142 -0.454,-0.227 -0.737,-0.312 -0.255,-0.085 -0.51,-0.142 -0.765,-0.142 -0.227,0 -0.397,0.057 -0.567,0.085 -0.17,0.029 -0.34,0.142 -0.539,0.256 -0.34,0.226 -0.538,0.595 -0.538,1.02 0,0.737 0.595,1.361 1.332,1.361 0.737,0 1.36,-0.624 1.36,-1.361 z" /><g
           id="g266"><text
   id="text270"
   style="font-variant:normal;font-weight:normal;font-size:10.998px;font-family:BitstreamVeraSans;-inkscape-font-specification:BitstreamVeraSans-Roman;writing-mode:lr-tb;fill:#000000;fill-opacity:1;fill-rule:nonzero;stroke:none"
   transform="matrix(1,0,0,-1,328.989,597.486)"><tspan
     id="tspan268"
     y="0"
     x="0 8.2924919 15.078258 18.564625 21.655062">He is</tspan></text>
</g><path
           id="path272"
           style="fill:#000000;fill-opacity:1;fill-rule:evenodd;stroke:none"
           d="m 420.378,630.226 c -0.085,-0.34 -0.454,-0.454 -0.567,-0.368 -0.142,0.056 -0.312,0.255 -0.312,0.566 0,0.085 0,0.171 0.057,0.284 0.34,0.907 0.51,1.842 0.51,2.721 0,1.191 -0.255,2.296 -0.51,2.977 -0.709,1.7 -2.608,4.45 -3.94,4.677 v 4.762 c 0,0.227 0.085,0.283 0.17,0.283 0.397,0 0.567,-0.113 0.595,-0.425 0.312,-1.899 1.162,-3.628 2.211,-5.187 1.219,-2.041 2.296,-4.394 2.296,-6.86 0,-1.559 -0.51,-3.43 -0.51,-3.43 z" /><g
           id="g274"><path
             id="path276"
             style="fill:none;stroke:#000000;stroke-width:0.56692;stroke-linecap:butt;stroke-linejoin:miter;stroke-miterlimit:3.8637;stroke-dasharray:none;stroke-opacity:1"
             d="m 415.871,629.432 v 16.526" /></g><path
           id="path278"
           style="fill:#000000;fill-opacity:1;fill-rule:evenodd;stroke:none"
           d="m 413.093,614.947 -2.154,4.621 c -0.057,0.028 -0.057,0.056 -0.057,0.113 0,0.114 0.085,0.199 0.227,0.199 h 1.389 c 0.028,0 0.113,-0.029 0.17,-0.114 0,0 1.162,-2.381 1.162,-2.494 0.057,-0.029 0.085,-0.057 0.142,-0.057 0.028,0 0.085,0.028 0.085,0.057 0.028,0.113 1.105,2.494 1.105,2.494 0.085,0.114 0.17,0.142 0.255,0.142 0,0 0.057,0 0.085,-0.028 0.085,0 0.142,-0.114 0.142,-0.199 0,-0.057 0,-0.057 0,-0.113 l -2.154,-4.621 c 0,0 -0.085,-0.141 -0.227,-0.141 -0.085,0 -0.113,0.056 -0.17,0.141 z" /><path
           id="path280"
           style="fill:#000000;fill-opacity:1;fill-rule:evenodd;stroke:none"
           d="m 412.271,626.059 c -1.077,0 -1.956,0.624 -1.956,1.644 0,1.701 1.786,3.373 4.025,3.373 1.134,0 1.899,-0.68 1.899,-1.7 0,-1.701 -2.154,-3.317 -3.968,-3.317 z" /><g
           id="g282"><path
             id="path284"
             style="fill:none;stroke:#000000;stroke-width:0.56692;stroke-linecap:butt;stroke-linejoin:miter;stroke-miterlimit:3.8637;stroke-dasharray:none;stroke-opacity:1"
             d="m 436.904,626.938 v 16.526" /></g><path
           id="path286"
           style="fill:#000000;fill-opacity:1;fill-rule:evenodd;stroke:none"
           d="m 433.304,623.565 c -1.077,0 -1.956,0.623 -1.956,1.672 0,1.758 1.786,3.345 3.997,3.345 1.077,0 1.899,-0.624 1.899,-1.644 0,-1.701 -2.154,-3.373 -3.94,-3.373 z" /><path
           id="path288"
           style="fill:#000000;fill-opacity:1;fill-rule:evenodd;stroke:none"
           d="m 338.882,638.446 v -2.466 l 18.113,2.466 v 2.552 z" /><g
           id="g290"><path
             id="path292"
             style="fill:none;stroke:#000000;stroke-width:0.76534;stroke-linecap:butt;stroke-linejoin:miter;stroke-miterlimit:3.8637;stroke-dasharray:none;stroke-opacity:1"
             d="M 452.778,640.998 V 621.155" /></g><g
           id="g294"><text
   id="text298"
   style="font-variant:normal;font-weight:normal;font-size:10.998px;font-family:BitstreamVeraSans;-inkscape-font-specification:BitstreamVeraSans-Roman;writing-mode:lr-tb;fill:#000000;fill-opacity:1;fill-rule:nonzero;stroke:none"
   transform="matrix(1,0,0,-1,369.099,597.486)"><tspan
     id="tspan296"
     y="0"
     x="0 4.3002181 11.283948 18.069714 22.567896">there</tspan></text>
</g><g
           id="g300"><path
             id="path302"
             style="fill:none;stroke:#000000;stroke-width:0.56692;stroke-linecap:butt;stroke-linejoin:miter;stroke-miterlimit:3.8637;stroke-dasharray:none;stroke-opacity:1"
             d="M 471.742,630.226 V 616.195" /></g><path
           id="path304"
           style="fill:#000000;fill-opacity:1;fill-rule:evenodd;stroke:none"
           d="m 473.414,628.525 c -1.105,0 -1.984,0.624 -1.984,1.673 0,1.757 1.814,3.345 3.968,3.345 1.191,0 1.956,-0.624 1.956,-1.645 0,-1.7 -2.211,-3.373 -3.94,-3.373 z" /><g
           id="g306"><path
             id="path308"
             style="fill:none;stroke:#000000;stroke-width:0.56692;stroke-linecap:butt;stroke-linejoin:miter;stroke-miterlimit:3.8637;stroke-dasharray:none;stroke-opacity:1"
             d="M 493.115,635.187 V 618.661" /></g><path
           id="path310"
           style="fill:#000000;fill-opacity:1;fill-rule:evenodd;stroke:none"
           d="m 494.731,633.486 c -1.049,0 -1.956,0.623 -1.956,1.672 0,1.758 1.814,3.345 4.025,3.345 1.134,0 1.899,-0.623 1.899,-1.644 0,-1.701 -2.154,-3.373 -3.968,-3.373 z" /><path
           id="path312"
           style="fill:#000000;fill-opacity:1;fill-rule:evenodd;stroke:none"
           d="m 506.693,633.174 v -0.198 c 0.652,0 1.644,1.19 1.814,1.332 0.085,0.085 0.17,0.085 0.227,0.085 0.028,-0.028 0.198,-0.113 0.198,-0.34 0,-0.114 -0.085,-0.425 -0.17,-0.794 0,0 -1.984,-6.973 -2.069,-7.03 -0.17,-0.142 -0.425,-0.198 -0.652,-0.198 -0.113,0 -0.595,0.028 -0.595,0.255 0.34,1.332 1.814,5.301 1.871,5.584 0,0.085 0,0.17 0,0.227 0,0.085 0,0.17 -0.114,0.17 -0.028,0 -0.028,0 -0.113,0 -0.227,-0.142 -0.397,-0.227 -0.709,-0.312 -0.198,-0.085 -0.453,-0.142 -0.765,-0.142 -0.17,0 -0.34,0.057 -0.482,0.085 -0.227,0.029 -0.425,0.142 -0.595,0.256 -0.312,0.226 -0.539,0.595 -0.539,1.02 0,0.737 0.567,1.361 1.361,1.361 0.737,0 1.332,-0.624 1.332,-1.361 z" /><g
           id="g314"><text
   id="text318"
   style="font-variant:normal;font-weight:normal;font-size:10.998px;font-family:BitstreamVeraSans;-inkscape-font-specification:BitstreamVeraSans-Roman;writing-mode:lr-tb;fill:#000000;fill-opacity:1;fill-rule:nonzero;stroke:none"
   transform="matrix(1,0,0,-1,406.403,597.486)"><tspan
     id="tspan316"
     y="0"
     x="0 3.7943101 10.580076 15.078258 18.564625 29.353662">for me</tspan></text>
</g><g
           id="g320"><path
             id="path322"
             style="fill:none;stroke:#000000;stroke-width:0.56692;stroke-linecap:butt;stroke-linejoin:miter;stroke-miterlimit:3.8637;stroke-dasharray:none;stroke-opacity:1"
             d="M 514.885,630.226 V 613.7" /></g><path
           id="path324"
           style="fill:#000000;fill-opacity:1;fill-rule:evenodd;stroke:none"
           d="m 516.529,628.525 c -1.077,0 -1.899,0.595 -1.899,1.673 0,1.077 0.907,3.345 3.912,3.345 1.162,0 1.984,-0.624 1.984,-1.645 0,-0.652 -0.652,-3.373 -3.997,-3.373 z m 1.531,1.616 c 1.417,0.935 1.814,1.417 1.814,1.814 0,0.142 -0.057,0.255 -0.085,0.369 -0.142,0.226 -0.369,0.425 -0.765,0.425 -0.397,0 -1.021,-0.199 -2.013,-0.794 -1.417,-0.794 -1.814,-1.36 -1.814,-1.786 0,-0.141 0.057,-0.283 0.085,-0.425 0.17,-0.227 0.397,-0.453 0.822,-0.453 0.425,0 1.049,0.226 1.956,0.85 z" /><path
           id="path326"
           style="fill:#000000;fill-opacity:1;fill-rule:evenodd;stroke:none"
           d="m 537.08,633.174 v -0.198 c 0.652,0 1.644,1.19 1.814,1.332 0.142,0.085 0.199,0.085 0.227,0.085 0.057,-0.028 0.227,-0.113 0.227,-0.34 0,-0.114 -0.085,-0.425 -0.17,-0.794 0,0 -2.013,-6.973 -2.041,-7.03 -0.255,-0.142 -0.51,-0.198 -0.737,-0.198 -0.113,0 -0.595,0.028 -0.595,0.255 0.397,1.332 1.842,5.301 1.899,5.584 0.028,0.085 0.028,0.17 0.028,0.227 0,0.085 -0.028,0.17 -0.085,0.17 -0.028,0 -0.085,0 -0.113,0 -0.284,-0.142 -0.454,-0.227 -0.737,-0.312 -0.255,-0.085 -0.51,-0.142 -0.794,-0.142 -0.198,0 -0.34,0.057 -0.51,0.085 -0.227,0.029 -0.397,0.142 -0.567,0.256 -0.283,0.226 -0.51,0.595 -0.51,1.02 0,0.737 0.567,1.361 1.304,1.361 0.737,0 1.36,-0.624 1.36,-1.361 z" /><path
           id="path328"
           style="fill:#000000;fill-opacity:1;fill-rule:evenodd;stroke:none"
           d="m 471.43,616.138 v 2.466 l 21.401,2.551 v -2.551 z" /><g
           id="g330"><path
             id="path332"
             style="fill:none;stroke:#000000;stroke-width:0.76534;stroke-linecap:butt;stroke-linejoin:miter;stroke-miterlimit:3.8637;stroke-dasharray:none;stroke-opacity:1"
             d="M 546.123,640.998 V 621.155" /></g><g
           id="g334"><path
             id="path336"
             style="fill:none;stroke:#000000;stroke-width:0.76534;stroke-linecap:butt;stroke-linejoin:miter;stroke-miterlimit:3.8637;stroke-dasharray:none;stroke-opacity:1"
             d="M 48.756,640.998 V 621.155" /></g><g
           id="g338"><path
             id="path340"
             style="fill:none;stroke:#000000;stroke-width:0.59526;stroke-linecap:butt;stroke-linejoin:miter;stroke-miterlimit:3.8637;stroke-dasharray:none;stroke-opacity:1"
             d="M 48.756,563.073 H 546.52" /></g><g
           id="g342"><path
             id="path344"
             style="fill:none;stroke:#000000;stroke-width:0.59526;stroke-linecap:butt;stroke-linejoin:miter;stroke-miterlimit:3.8637;stroke-dasharray:none;stroke-opacity:1"
             d="M 48.756,558.113 H 546.52" /></g><g
           id="g346"><path
             id="path348"
             style="fill:none;stroke:#000000;stroke-width:0.59526;stroke-linecap:butt;stroke-linejoin:miter;stroke-miterlimit:3.8637;stroke-dasharray:none;stroke-opacity:1"
             d="M 48.756,553.152 H 546.52" /></g><g
           id="g350"><path
             id="path352"
             style="fill:none;stroke:#000000;stroke-width:0.59526;stroke-linecap:butt;stroke-linejoin:miter;stroke-miterlimit:3.8637;stroke-dasharray:none;stroke-opacity:1"
             d="M 48.756,548.191 H 546.52" /></g><g
           id="g354"><path
             id="path356"
             style="fill:none;stroke:#000000;stroke-width:0.59526;stroke-linecap:butt;stroke-linejoin:miter;stroke-miterlimit:3.8637;stroke-dasharray:none;stroke-opacity:1"
             d="M 48.756,543.231 H 546.52" /></g><g
           id="g358"><text
   id="text362"
   style="font-variant:normal;font-weight:normal;font-size:10.998px;font-family:BitstreamVeraSans;-inkscape-font-specification:BitstreamVeraSans-Roman;writing-mode:lr-tb;fill:#000000;fill-opacity:1;fill-rule:nonzero;stroke:none"
   transform="matrix(1,0,0,-1,460.687,597.486)"><tspan
     id="tspan360"
     y="0"
     x="0 8.9853659 15.881112 22.76586 29.74959 33.147972">when I</tspan></text>
</g><path
           id="path364"
           style="fill:#000000;fill-opacity:1;fill-rule:evenodd;stroke:none"
           d="m 78.435,575.943 c 10.686,0.198 21.316,-2.637 31.946,-9.95 v -0.992 c -10.63,6.123 -21.26,8.901 -31.946,9.921 z" /><path
           id="path366"
           style="fill:#000000;fill-opacity:1;fill-rule:evenodd;stroke:none"
           d="m 129.005,566.021 c 10.204,3.374 20.409,3.374 30.557,0 v -0.992 c -10.148,2.154 -20.353,2.154 -30.557,0 z" /><path
           id="path368"
           style="fill:#000000;fill-opacity:1;fill-rule:evenodd;stroke:none"
           d="m 253.786,572.229 c 10.97,3.147 21.94,2.721 32.91,-1.304 v -1.049 c -10.97,2.863 -21.94,3.26 -32.91,1.361 z" /><path
           id="path370"
           style="fill:#000000;fill-opacity:1;fill-rule:evenodd;stroke:none"
           d="m 344.92,538.752 c 19.247,-6.406 38.494,-7.824 57.713,-5.017 v -0.992 c -19.219,-3.997 -38.466,-2.58 -57.713,5.017 z" /><path
           id="path372"
           style="fill:#000000;fill-opacity:1;fill-rule:evenodd;stroke:none"
           d="m 454.167,571.01 c 19.474,5.811 38.948,3.969 58.507,-5.017 v -0.992 c -19.559,7.795 -39.033,9.638 -58.507,5.017 z" /><g
           id="g374"><text
   id="text378"
   style="font-variant:normal;font-weight:normal;font-size:10.998px;font-family:BitstreamVeraSans;-inkscape-font-specification:BitstreamVeraSans-Roman;writing-mode:lr-tb;fill:#000000;fill-opacity:1;fill-rule:nonzero;stroke:none"
   transform="matrix(1,0,0,-1,506.211,597.486)"><tspan
     id="tspan376"
     y="0"
     x="0 6.9837298 11.481912 18.179693">pray</tspan></text>
</g><path
           id="path380"
           style="fill:#000000;fill-opacity:1;fill-rule:evenodd;stroke:none"
           d="m 60.576,566.9 c -1.275,0 -2.664,-1.899 -2.664,-4.989 0,-0.652 0,-1.332 0.085,-1.842 0.057,-0.256 0.142,-0.284 0.255,-0.142 0.482,0.397 0.964,0.85 1.276,1.162 1.615,1.531 2.267,2.806 2.267,4.195 0,1.077 -0.567,1.616 -1.219,1.616 z m -0.85,-16.668 1.02,-5.726 c 0.057,-0.226 0.085,-0.226 0.312,-0.113 1.134,0.567 1.871,1.644 1.871,2.891 0,1.729 -1.304,3.09 -2.92,3.232 -0.283,0 -0.283,-0.057 -0.283,-0.284 z m -1.332,3.147 -0.425,2.551 c -0.057,0.227 -0.114,0.227 -0.312,0.085 -0.907,-0.765 -1.814,-1.502 -3.005,-2.835 -1.644,-1.871 -1.871,-3.43 -1.871,-4.592 0,-2.749 2.268,-4.734 5.726,-4.734 0.397,0 0.794,0.029 1.134,0.085 0.34,0.057 0.34,0.057 0.34,0.284 l -1.077,5.981 c -0.028,0.198 -0.085,0.227 -0.397,0.142 -1.19,-0.34 -1.984,-1.191 -1.984,-2.325 0,-0.907 0.595,-1.757 1.446,-2.126 0.113,-0.056 0.283,-0.113 0.283,-0.312 0,-0.113 -0.085,-0.198 -0.255,-0.198 -0.142,0 -0.34,0.057 -0.51,0.113 -1.361,0.511 -2.268,1.786 -2.268,3.572 0,1.673 1.134,3.232 2.863,3.827 0.34,0.142 0.34,0.113 0.312,0.482 z m 0.255,3.033 0.51,-2.863 c 0.057,-0.369 0.057,-0.369 0.567,-0.369 2.976,0 4.847,-2.239 4.847,-4.762 0,-2.268 -1.304,-3.997 -3.345,-4.79 -0.255,-0.114 -0.255,-0.114 -0.255,-0.341 0.255,-1.218 0.567,-3.118 0.567,-4.252 0,-3.373 -2.636,-3.968 -3.94,-3.968 -2.976,0 -3.77,1.956 -3.77,3.231 0,1.248 0.794,2.297 2.126,2.297 1.219,0 1.871,-0.936 1.871,-2.041 0,-1.134 -0.709,-1.673 -1.304,-1.843 -0.482,-0.142 -0.652,-0.198 -0.652,-0.34 0,-0.255 0.51,-0.595 1.616,-0.595 1.162,0 3.174,0.368 3.174,3.316 0,0.936 -0.255,2.636 -0.51,3.969 -0.057,0.255 -0.085,0.226 -0.368,0.198 -0.397,-0.085 -0.879,-0.142 -1.361,-0.142 -4.847,0 -7.228,3.345 -7.228,6.803 0,2.126 0.85,3.969 2.211,5.67 1.077,1.275 2.438,2.466 3.685,3.543 0.255,0.199 0.255,0.227 0.17,0.454 -0.142,0.822 -0.255,2.126 -0.255,3.259 0,2.07 0.482,4.536 1.956,6.18 0.368,0.425 1.048,0.935 1.332,0.935 0.198,0 0.737,-0.538 1.02,-0.992 0.822,-1.19 1.304,-2.891 1.304,-4.62 0,-2.24 -0.992,-4.592 -2.636,-6.406 -0.453,-0.426 -0.85,-0.851 -1.19,-1.134 -0.142,-0.142 -0.142,-0.142 -0.142,-0.397 z" /><g
           id="g382"><path
             id="path384"
             style="fill:none;stroke:#000000;stroke-width:0.56692;stroke-linecap:butt;stroke-linejoin:miter;stroke-miterlimit:3.8637;stroke-dasharray:none;stroke-opacity:1"
             d="M 78.69,552.302 V 535.776" /></g><path
           id="path386"
           style="fill:#000000;fill-opacity:1;fill-rule:evenodd;stroke:none"
           d="m 84.246,564.491 h -5.783 c -0.51,0 -0.51,0.226 -0.51,0.481 0,0.256 0,0.482 0.51,0.482 h 5.783 c 0.51,0 0.51,-0.226 0.51,-0.482 0,-0.255 -0.057,-0.481 -0.51,-0.481 z m -2.041,-3.033 c 0,-0.454 -0.34,-0.823 -0.822,-0.823 -0.454,0 -0.794,0.369 -0.794,0.823 0,0.453 0.34,0.85 0.794,0.85 0.482,0 0.822,-0.397 0.822,-0.85 z" /><path
           id="path388"
           style="fill:#000000;fill-opacity:1;fill-rule:evenodd;stroke:none"
           d="m 81.496,572.824 2.211,-4.62 c 0,-0.028 0,-0.085 0,-0.113 0,-0.114 -0.085,-0.199 -0.227,-0.227 h -1.332 c -0.057,0 -0.142,0.056 -0.227,0.142 0,0 -1.162,2.381 -1.19,2.466 0,0.028 -0.085,0.056 -0.085,0.056 -0.057,0 -0.057,-0.028 -0.085,-0.056 -0.057,-0.085 -1.134,-2.466 -1.134,-2.466 0,-0.114 -0.142,-0.142 -0.227,-0.142 0,0 -0.028,0 -0.085,0 -0.085,0.028 -0.113,0.142 -0.113,0.227 0,0.028 0,0.056 0.028,0.113 l 2.098,4.62 c 0,0 0.028,0.114 0.198,0.114 0.057,0 0.142,-0.029 0.17,-0.114 z" /><path
           id="path390"
           style="fill:#000000;fill-opacity:1;fill-rule:evenodd;stroke:none"
           d="m 80.419,550.601 c -1.106,0 -1.984,0.623 -1.984,1.672 0,1.729 1.785,3.345 3.968,3.345 1.134,0 1.899,-0.652 1.899,-1.672 0,-1.673 -2.154,-3.345 -3.883,-3.345 z" /><g
           id="g392"><text
   id="text396"
   style="font-variant:normal;font-weight:normal;font-size:10.998px;font-family:BitstreamVeraSans;-inkscape-font-specification:BitstreamVeraSans-Roman;writing-mode:lr-tb;fill:#000000;fill-opacity:1;fill-rule:nonzero;stroke:none"
   transform="matrix(1,0,0,-1,489.402,519.193)"><tspan
     id="tspan394"
     y="0"
     x="0">-</tspan></text>
</g><g
           id="g398"><path
             id="path400"
             style="fill:none;stroke:#000000;stroke-width:0.56692;stroke-linecap:butt;stroke-linejoin:miter;stroke-miterlimit:3.8637;stroke-dasharray:none;stroke-opacity:1"
             d="M 104.797,557.262 V 540.736" /></g><path
           id="path402"
           style="fill:#000000;fill-opacity:1;fill-rule:evenodd;stroke:none"
           d="m 106.413,555.561 c -1.106,0 -1.956,0.624 -1.956,1.673 0,1.729 1.786,3.345 3.997,3.345 1.133,0 1.927,-0.652 1.927,-1.673 0,-1.672 -2.154,-3.345 -3.968,-3.345 z" /><g
           id="g404"><text
   id="text408"
   style="font-variant:normal;font-weight:normal;font-size:10.998px;font-family:BitstreamVeraSans;-inkscape-font-specification:BitstreamVeraSans-Roman;writing-mode:lr-tb;fill:#000000;fill-opacity:1;fill-rule:nonzero;stroke:none"
   transform="matrix(1,0,0,-1,75.6,519.193)"><tspan
     id="tspan406"
     y="0"
     x="0 3.200418">Je</tspan></text>
</g><g
           id="g410"><path
             id="path412"
             style="fill:none;stroke:#000000;stroke-width:0.56692;stroke-linecap:butt;stroke-linejoin:miter;stroke-miterlimit:3.8637;stroke-dasharray:none;stroke-opacity:1"
             d="M 129.317,552.302 V 535.776" /></g><path
           id="path414"
           style="fill:#000000;fill-opacity:1;fill-rule:evenodd;stroke:none"
           d="m 130.961,550.601 c -1.106,0 -1.956,0.623 -1.956,1.672 0,1.729 1.729,3.345 3.968,3.345 1.134,0 1.956,-0.652 1.956,-1.672 0,-1.673 -2.183,-3.345 -3.968,-3.345 z" /><g
           id="g416"><text
   id="text420"
   style="font-variant:normal;font-weight:normal;font-size:10.998px;font-family:BitstreamVeraSans;-inkscape-font-specification:BitstreamVeraSans-Roman;writing-mode:lr-tb;fill:#000000;fill-opacity:1;fill-rule:nonzero;stroke:none"
   transform="matrix(1,0,0,-1,99.014,519.193)"><tspan
     id="tspan418"
     y="0"
     x="0 5.7849479 12.680694">sus</tspan></text>
</g><g
           id="g422"><path
             id="path424"
             style="fill:none;stroke:#000000;stroke-width:0.56692;stroke-linecap:butt;stroke-linejoin:miter;stroke-miterlimit:3.8637;stroke-dasharray:none;stroke-opacity:1"
             d="M 153.95,557.262 V 540.736" /></g><path
           id="path426"
           style="fill:#000000;fill-opacity:1;fill-rule:evenodd;stroke:none"
           d="m 155.622,555.561 c -1.105,0 -1.984,0.624 -1.984,1.673 0,1.729 1.786,3.345 3.968,3.345 1.134,0 1.956,-0.652 1.956,-1.673 0,-1.672 -2.154,-3.345 -3.94,-3.345 z" /><g
           id="g428"><text
   id="text432"
   style="font-variant:normal;font-weight:normal;font-size:10.998px;font-family:BitstreamVeraSans;-inkscape-font-specification:BitstreamVeraSans-Roman;writing-mode:lr-tb;fill:#000000;fill-opacity:1;fill-rule:nonzero;stroke:none"
   transform="matrix(1,0,0,-1,127.701,519.193)"><tspan
     id="tspan430"
     y="0"
     x="0 3.0904379">is</tspan></text>
</g><g
           id="g434"><path
             id="path436"
             style="fill:none;stroke:#000000;stroke-width:0.76534;stroke-linecap:butt;stroke-linejoin:miter;stroke-miterlimit:3.8637;stroke-dasharray:none;stroke-opacity:1"
             d="M 177.307,563.073 V 543.231" /></g><g
           id="g438"><text
   id="text442"
   style="font-variant:normal;font-weight:normal;font-size:10.998px;font-family:BitstreamVeraSans;-inkscape-font-specification:BitstreamVeraSans-Roman;writing-mode:lr-tb;fill:#000000;fill-opacity:1;fill-rule:nonzero;stroke:none"
   transform="matrix(1,0,0,-1,148.11,519.193)"><tspan
     id="tspan440"
     y="0"
     x="0 6.697782 13.681512">our</tspan></text>
</g><g
           id="g444"><path
             id="path446"
             style="fill:none;stroke:#000000;stroke-width:0.56692;stroke-linecap:butt;stroke-linejoin:miter;stroke-miterlimit:3.8637;stroke-dasharray:none;stroke-opacity:1"
             d="M 194.542,552.302 V 535.776" /></g><path
           id="path448"
           style="fill:#000000;fill-opacity:1;fill-rule:evenodd;stroke:none"
           d="m 200.069,560.069 h -5.839 c -0.482,0 -0.482,0.198 -0.482,0.453 0,0.284 0,0.539 0.482,0.539 h 5.839 c 0.482,0 0.482,-0.255 0.482,-0.539 0,-0.255 0,-0.453 -0.482,-0.453 z" /><path
           id="path450"
           style="fill:#000000;fill-opacity:1;fill-rule:evenodd;stroke:none"
           d="m 200.296,566.361 -6.094,-2.069 c -0.057,-0.028 -0.057,-0.028 -0.085,-0.028 -0.142,0 -0.227,0.17 -0.312,0.312 0,0.056 0,0.113 0,0.17 0,0.141 0.028,0.226 0.255,0.34 0,0 4.337,1.474 4.535,1.531 0.142,0.028 0.142,0.085 0.142,0.141 0,0.057 0,0.114 -0.142,0.142 -0.17,0.057 -4.535,1.531 -4.535,1.531 -0.227,0.056 -0.255,0.17 -0.255,0.255 0,0.057 0,0.142 0,0.198 0.085,0.17 0.17,0.284 0.34,0.284 0,0 0.085,-0.029 0.17,-0.029 l 5.981,-2.041 c 0.255,-0.056 0.255,-0.198 0.255,-0.34 0,-0.17 0,-0.312 -0.255,-0.397 z" /><path
           id="path452"
           style="fill:#000000;fill-opacity:1;fill-rule:evenodd;stroke:none"
           d="m 196.186,550.601 c -1.077,0 -1.956,0.623 -1.956,1.672 0,1.729 1.786,3.345 3.968,3.345 1.134,0 1.956,-0.652 1.956,-1.672 0,-1.673 -2.154,-3.345 -3.968,-3.345 z" /><g
           id="g454"><text
   id="text458"
   style="font-variant:normal;font-weight:normal;font-size:10.998px;font-family:BitstreamVeraSans;-inkscape-font-specification:BitstreamVeraSans-Roman;writing-mode:lr-tb;fill:#000000;fill-opacity:1;fill-rule:nonzero;stroke:none"
   transform="matrix(1,0,0,-1,91.191,519.193)"><tspan
     id="tspan456"
     y="0"
     x="0">-</tspan></text>
</g><g
           id="g460"><path
             id="path462"
             style="fill:none;stroke:#000000;stroke-width:0.56692;stroke-linecap:butt;stroke-linejoin:miter;stroke-miterlimit:3.8637;stroke-dasharray:none;stroke-opacity:1"
             d="M 229.89,557.262 V 540.736" /></g><path
           id="path464"
           style="fill:#000000;fill-opacity:1;fill-rule:evenodd;stroke:none"
           d="m 235.644,566.361 -6.094,-2.069 c -0.057,-0.028 -0.057,-0.028 -0.085,-0.028 -0.142,0 -0.227,0.17 -0.312,0.312 0,0.056 0,0.113 0,0.17 0,0.141 0.028,0.226 0.255,0.34 0,0 4.337,1.474 4.535,1.531 0.142,0.028 0.142,0.085 0.142,0.141 0,0.057 0,0.114 -0.142,0.142 -0.17,0.057 -4.535,1.531 -4.535,1.531 -0.227,0.056 -0.255,0.17 -0.255,0.255 0,0.057 0,0.142 0,0.198 0.085,0.17 0.17,0.284 0.34,0.284 0,0 0.085,-0.029 0.17,-0.029 l 5.981,-2.041 c 0.255,-0.056 0.255,-0.198 0.255,-0.34 0,-0.17 0,-0.312 -0.255,-0.397 z" /><path
           id="path466"
           style="fill:#000000;fill-opacity:1;fill-rule:evenodd;stroke:none"
           d="m 231.534,555.561 c -1.077,0 -1.956,0.624 -1.956,1.673 0,1.729 1.786,3.345 3.968,3.345 1.134,0 1.928,-0.652 1.928,-1.673 0,-1.672 -2.126,-3.345 -3.94,-3.345 z" /><g
           id="g468"><path
             id="path470"
             style="fill:none;stroke:#000000;stroke-width:0.56692;stroke-linecap:butt;stroke-linejoin:miter;stroke-miterlimit:3.8637;stroke-dasharray:none;stroke-opacity:1"
             d="M 254.126,552.302 V 538.27" /></g><path
           id="path472"
           style="fill:#000000;fill-opacity:1;fill-rule:evenodd;stroke:none"
           d="m 256.932,569.224 2.183,-4.648 c 0,-0.029 0,-0.057 0,-0.114 0,-0.113 -0.057,-0.198 -0.227,-0.198 h -1.332 c -0.085,0 -0.199,0.028 -0.227,0.113 0,0 -1.162,2.353 -1.162,2.438 -0.028,0.028 -0.085,0.085 -0.113,0.085 -0.057,0 -0.057,-0.057 -0.085,-0.085 -0.057,-0.085 -1.134,-2.438 -1.134,-2.438 -0.057,-0.113 -0.142,-0.142 -0.227,-0.142 0,0 -0.085,0 -0.085,0.029 -0.085,0 -0.17,0.113 -0.17,0.198 0,0.057 0,0.057 0.028,0.114 l 2.154,4.648 c 0,0 0.057,0.114 0.227,0.114 0.085,0 0.142,-0.057 0.17,-0.114 z" /><path
           id="path474"
           style="fill:#000000;fill-opacity:1;fill-rule:evenodd;stroke:none"
           d="m 255.77,550.601 c -1.077,0 -1.984,0.623 -1.984,1.672 0,1.729 1.842,3.345 4.025,3.345 1.134,0 1.899,-0.652 1.899,-1.672 0,-1.673 -2.154,-3.345 -3.94,-3.345 z" /><path
           id="path476"
           style="fill:#000000;fill-opacity:1;fill-rule:evenodd;stroke:none"
           d="m 270.454,555.278 v -0.198 c 0.68,0 1.672,1.19 1.842,1.303 0.085,0.086 0.17,0.086 0.198,0.086 0.057,-0.029 0.227,-0.114 0.227,-0.312 0,-0.114 -0.085,-0.425 -0.17,-0.794 0,0 -1.984,-7.002 -2.069,-7.058 -0.17,-0.142 -0.482,-0.199 -0.68,-0.199 -0.142,0 -0.567,0.029 -0.567,0.255 0.34,1.304 1.814,5.33 1.871,5.613 0.028,0.085 0.028,0.17 0.028,0.227 0,0.085 -0.028,0.17 -0.142,0.17 -0.028,0 -0.028,0 -0.085,0 -0.255,-0.142 -0.453,-0.227 -0.765,-0.312 -0.17,-0.085 -0.482,-0.142 -0.737,-0.142 -0.17,0 -0.397,0.057 -0.539,0.085 -0.198,0.029 -0.34,0.142 -0.538,0.256 -0.312,0.226 -0.539,0.595 -0.539,1.02 0,0.737 0.567,1.332 1.304,1.332 0.737,0 1.361,-0.595 1.361,-1.332 z" /><g
           id="g478"><text
   id="text482"
   style="font-variant:normal;font-weight:normal;font-size:10.998px;font-family:BitstreamVeraSans;-inkscape-font-specification:BitstreamVeraSans-Roman;writing-mode:lr-tb;fill:#000000;fill-opacity:1;fill-rule:nonzero;stroke:none"
   transform="matrix(1,0,0,-1,185.187,519.193)"><tspan
     id="tspan480"
     y="0"
     x="0 5.9939098 12.779676 17.277859">Lord</tspan></text>
</g><path
           id="path484"
           style="fill:#000000;fill-opacity:1;fill-rule:evenodd;stroke:none"
           d="m 290.863,552.302 c -0.142,-0.341 -0.454,-0.454 -0.567,-0.369 -0.142,0.057 -0.312,0.255 -0.312,0.567 0,0.085 0,0.17 0.057,0.283 0.34,0.908 0.453,1.843 0.453,2.722 0,1.19 -0.17,2.353 -0.453,3.033 -0.737,1.701 -2.608,4.394 -3.997,4.62 v 4.762 c 0,0.227 0.085,0.284 0.227,0.284 0.397,0 0.51,-0.113 0.567,-0.425 0.34,-1.899 1.19,-3.629 2.239,-5.188 1.247,-1.984 2.296,-4.337 2.296,-6.859 0,-1.56 -0.51,-3.43 -0.51,-3.43 z" /><g
           id="g486"><path
             id="path488"
             style="fill:none;stroke:#000000;stroke-width:0.56692;stroke-linecap:butt;stroke-linejoin:miter;stroke-miterlimit:3.8637;stroke-dasharray:none;stroke-opacity:1"
             d="m 286.356,551.508 v 16.526" /></g><path
           id="path490"
           style="fill:#000000;fill-opacity:1;fill-rule:evenodd;stroke:none"
           d="m 282.756,548.135 c -1.077,0 -1.956,0.623 -1.956,1.644 0,1.729 1.729,3.373 3.997,3.373 1.105,0 1.899,-0.652 1.899,-1.672 0,-1.73 -2.154,-3.345 -3.94,-3.345 z" /><g
           id="g492"><text
   id="text496"
   style="font-variant:normal;font-weight:normal;font-size:10.998px;font-family:BitstreamVeraSans;-inkscape-font-specification:BitstreamVeraSans-Roman;writing-mode:lr-tb;fill:#000000;fill-opacity:1;fill-rule:nonzero;stroke:none"
   transform="matrix(1,0,0,-1,222.888,519.193)"><tspan
     id="tspan494"
     y="0"
     x="0 6.697782 13.681512 20.577257 24.063623 31.047354">and Sa</tspan></text>
</g><path
           id="path498"
           style="fill:#000000;fill-opacity:1;fill-rule:evenodd;stroke:none"
           d="m 310.025,549.807 c -0.085,-0.34 -0.425,-0.453 -0.567,-0.368 -0.085,0.085 -0.312,0.255 -0.312,0.567 0,0.085 0.057,0.198 0.057,0.311 0.34,0.879 0.482,1.815 0.482,2.722 0,1.162 -0.142,2.296 -0.482,2.976 -0.709,1.729 -2.636,4.422 -3.94,4.677 v 4.734 c 0,0.255 0.085,0.312 0.227,0.312 0.397,0 0.51,-0.142 0.567,-0.454 0.34,-1.899 1.162,-3.6 2.211,-5.159 1.275,-1.984 2.324,-4.393 2.324,-6.888 0,-1.531 -0.567,-3.43 -0.567,-3.43 z" /><g
           id="g500"><path
             id="path502"
             style="fill:none;stroke:#000000;stroke-width:0.56692;stroke-linecap:butt;stroke-linejoin:miter;stroke-miterlimit:3.8637;stroke-dasharray:none;stroke-opacity:1"
             d="m 305.575,549.013 v 16.526" /></g><path
           id="path504"
           style="fill:#000000;fill-opacity:1;fill-rule:evenodd;stroke:none"
           d="m 301.975,545.64 c -1.049,0 -1.956,0.624 -1.956,1.673 0,1.729 1.786,3.345 3.968,3.345 1.134,0 1.956,-0.624 1.956,-1.673 0,-1.672 -2.154,-3.345 -3.968,-3.345 z" /><path
           id="path506"
           style="fill:#000000;fill-opacity:1;fill-rule:evenodd;stroke:none"
           d="m 321.959,555.278 v -0.198 c 0.652,0 1.644,1.19 1.786,1.303 0.113,0.086 0.198,0.086 0.198,0.086 0.085,-0.029 0.255,-0.114 0.255,-0.312 -0.028,-0.114 -0.113,-0.425 -0.17,-0.794 0,0 -1.984,-7.002 -2.041,-7.058 -0.17,-0.142 -0.453,-0.199 -0.68,-0.199 -0.17,0 -0.595,0.029 -0.595,0.255 0.34,1.304 1.814,5.33 1.842,5.613 0.057,0.085 0.057,0.17 0.057,0.227 0,0.085 -0.057,0.17 -0.142,0.17 0,0 -0.028,0 -0.085,0 -0.255,-0.142 -0.425,-0.227 -0.68,-0.312 -0.227,-0.085 -0.567,-0.142 -0.822,-0.142 -0.17,0 -0.34,0.057 -0.51,0.085 -0.227,0.029 -0.397,0.142 -0.567,0.256 -0.312,0.226 -0.567,0.595 -0.567,1.02 0,0.737 0.652,1.332 1.389,1.332 0.708,0 1.332,-0.595 1.332,-1.332 z" /><g
           id="g508"><text
   id="text512"
   style="font-variant:normal;font-weight:normal;font-size:10.998px;font-family:BitstreamVeraSans;-inkscape-font-specification:BitstreamVeraSans-Roman;writing-mode:lr-tb;fill:#000000;fill-opacity:1;fill-rule:nonzero;stroke:none"
   transform="matrix(1,0,0,-1,279.099,519.193)"><tspan
     id="tspan510"
     y="0"
     x="0 6.4998178">vi</tspan></text>
</g><g
           id="g514"><text
   id="text518"
   style="font-variant:normal;font-weight:normal;font-size:10.998px;font-family:BitstreamVeraSans;-inkscape-font-specification:BitstreamVeraSans-Roman;writing-mode:lr-tb;fill:#000000;fill-opacity:1;fill-rule:nonzero;stroke:none"
   transform="matrix(1,0,0,-1,297.808,519.193)"><tspan
     id="tspan516"
     y="0"
     x="0 6.697782">or</tspan></text>
</g><path
           id="path520"
           style="fill:#000000;fill-opacity:1;fill-rule:evenodd;stroke:none"
           d="m 229.578,540.708 v 2.523 l 24.293,-2.523 v -2.495 z" /><g
           id="g522"><path
             id="path524"
             style="fill:none;stroke:#000000;stroke-width:0.76534;stroke-linecap:butt;stroke-linejoin:miter;stroke-miterlimit:3.8637;stroke-dasharray:none;stroke-opacity:1"
             d="M 332.646,563.073 V 543.231" /></g><g
           id="g526"><text
   id="text530"
   style="font-variant:normal;font-weight:normal;font-size:10.998px;font-family:BitstreamVeraSans;-inkscape-font-specification:BitstreamVeraSans-Roman;writing-mode:lr-tb;fill:#000000;fill-opacity:1;fill-rule:nonzero;stroke:none"
   transform="matrix(1,0,0,-1,266.91,519.193)"><tspan
     id="tspan528"
     y="0"
     x="0">-</tspan></text>
</g><g
           id="g532"><path
             id="path534"
             style="fill:none;stroke:#000000;stroke-width:0.56692;stroke-linecap:butt;stroke-linejoin:miter;stroke-miterlimit:3.8637;stroke-dasharray:none;stroke-opacity:1"
             d="m 350.476,544.053 v 16.526" /></g><path
           id="path536"
           style="fill:#000000;fill-opacity:1;fill-rule:evenodd;stroke:none"
           d="m 346.819,540.68 c -1.077,0 -1.899,0.623 -1.899,1.672 0,1.729 1.729,3.345 3.94,3.345 1.162,0 1.984,-0.624 1.984,-1.673 0,-1.672 -2.239,-3.344 -4.025,-3.344 z" /><g
           id="g538"><text
   id="text542"
   style="font-variant:normal;font-weight:normal;font-size:10.998px;font-family:BitstreamVeraSans;-inkscape-font-specification:BitstreamVeraSans-Roman;writing-mode:lr-tb;fill:#000000;fill-opacity:1;fill-rule:nonzero;stroke:none"
   transform="matrix(1,0,0,-1,291.288,519.193)"><tspan
     id="tspan540"
     y="0"
     x="0">-</tspan></text>
</g><g
           id="g544"><path
             id="path546"
             style="fill:none;stroke:#000000;stroke-width:0.56692;stroke-linecap:butt;stroke-linejoin:miter;stroke-miterlimit:3.8637;stroke-dasharray:none;stroke-opacity:1"
             d="m 370.403,549.013 v 14.06" /></g><path
           id="path548"
           style="fill:#000000;fill-opacity:1;fill-rule:evenodd;stroke:none"
           d="m 366.831,545.64 c -1.077,0 -1.955,0.624 -1.955,1.673 0,1.729 1.785,3.345 3.968,3.345 1.134,0 1.899,-0.624 1.899,-1.673 0,-1.672 -2.126,-3.345 -3.912,-3.345 z" /><path
           id="path550"
           style="fill:#000000;fill-opacity:1;fill-rule:evenodd;stroke:none"
           d="m 381.713,555.278 v -0.198 c 0.652,0 1.701,1.19 1.843,1.303 0.113,0.086 0.17,0.086 0.198,0.086 0.057,-0.029 0.227,-0.114 0.227,-0.312 0,-0.114 -0.085,-0.425 -0.17,-0.794 0,0 -1.956,-7.002 -2.041,-7.058 -0.17,-0.142 -0.482,-0.199 -0.709,-0.199 -0.113,0 -0.567,0.029 -0.567,0.255 0.369,1.304 1.786,5.33 1.843,5.613 0.028,0.085 0.028,0.17 0.028,0.227 0,0.085 -0.028,0.17 -0.085,0.17 -0.028,0 -0.085,0 -0.085,0 -0.312,-0.142 -0.482,-0.227 -0.737,-0.312 -0.227,-0.085 -0.51,-0.142 -0.765,-0.142 -0.199,0 -0.397,0.057 -0.539,0.085 -0.198,0.029 -0.368,0.142 -0.595,0.256 -0.255,0.226 -0.51,0.595 -0.51,1.02 0,0.737 0.567,1.332 1.332,1.332 0.737,0 1.332,-0.595 1.332,-1.332 z" /><g
           id="g552"><text
   id="text556"
   style="font-variant:normal;font-weight:normal;font-size:10.998px;font-family:BitstreamVeraSans;-inkscape-font-specification:BitstreamVeraSans-Roman;writing-mode:lr-tb;fill:#000000;fill-opacity:1;fill-rule:nonzero;stroke:none"
   transform="matrix(1,0,0,-1,340.498,519.193)"><tspan
     id="tspan554"
     y="0"
     x="0 8.2924919">He</tspan></text>
</g><path
           id="path558"
           style="fill:#000000;fill-opacity:1;fill-rule:evenodd;stroke:none"
           d="m 401.584,550.856 c -0.34,0.85 0.567,1.304 0.737,0.652 0.17,-0.624 0.567,-2.041 0.567,-3.572 0,-2.494 -1.219,-4.847 -2.466,-6.803 -1.049,-1.644 -2.494,-3.373 -2.863,-5.244 -0.028,-0.312 -0.17,-0.425 -0.595,-0.425 -0.142,0 -0.227,0.056 -0.227,0.283 v 4.734 c 2.721,0.879 3.713,2.495 4.422,4.167 0.34,0.652 0.822,2.324 0.822,3.487 0,0.907 -0.142,1.899 -0.397,2.721 z" /><g
           id="g560"><path
             id="path562"
             style="fill:none;stroke:#000000;stroke-width:0.56692;stroke-linecap:butt;stroke-linejoin:miter;stroke-miterlimit:3.8637;stroke-dasharray:none;stroke-opacity:1"
             d="M 397.049,552.302 V 535.776" /></g><path
           id="path564"
           style="fill:#000000;fill-opacity:1;fill-rule:evenodd;stroke:none"
           d="m 398.693,550.601 c -1.077,0 -1.956,0.623 -1.956,1.672 0,1.729 1.729,3.345 3.969,3.345 1.105,0 1.927,-0.652 1.927,-1.672 0,-1.673 -2.154,-3.345 -3.94,-3.345 z" /><path
           id="path566"
           style="fill:#000000;fill-opacity:1;fill-rule:evenodd;stroke:none"
           d="m 413.858,555.278 v -0.198 c 0.652,0 1.644,1.19 1.786,1.303 0.113,0.086 0.17,0.086 0.227,0.086 0.028,-0.029 0.255,-0.114 0.255,-0.312 -0.057,-0.114 -0.142,-0.425 -0.227,-0.794 0,0 -1.956,-7.002 -1.984,-7.058 -0.227,-0.142 -0.482,-0.199 -0.709,-0.199 -0.113,0 -0.595,0.029 -0.595,0.255 0.397,1.304 1.814,5.33 1.871,5.613 0.028,0.085 0.028,0.17 0.028,0.227 0,0.085 -0.028,0.17 -0.085,0.17 -0.028,0 -0.085,0 -0.142,0 -0.255,-0.142 -0.425,-0.227 -0.68,-0.312 -0.255,-0.085 -0.51,-0.142 -0.794,-0.142 -0.198,0 -0.34,0.057 -0.51,0.085 -0.227,0.029 -0.425,0.142 -0.595,0.256 -0.34,0.226 -0.567,0.595 -0.567,1.02 0,0.737 0.624,1.332 1.417,1.332 0.737,0 1.304,-0.595 1.304,-1.332 z" /><g
           id="g568"><text
   id="text572"
   style="font-variant:normal;font-weight:normal;font-size:10.998px;font-family:BitstreamVeraSans;-inkscape-font-specification:BitstreamVeraSans-Roman;writing-mode:lr-tb;fill:#000000;fill-opacity:1;fill-rule:nonzero;stroke:none"
   transform="matrix(1,0,0,-1,363.487,519.193)"><tspan
     id="tspan570"
     y="0"
     x="0 3.0904379">is</tspan></text>
</g><path
           id="path574"
           style="fill:#000000;fill-opacity:1;fill-rule:evenodd;stroke:none"
           d="m 441.269,549.807 c -0.085,-0.34 -0.425,-0.453 -0.567,-0.368 -0.113,0.085 -0.34,0.255 -0.34,0.567 0,0.085 0.057,0.198 0.085,0.311 0.34,0.879 0.482,1.815 0.482,2.722 0,1.162 -0.17,2.296 -0.482,2.976 -0.737,1.729 -2.636,4.422 -3.94,4.677 v 4.734 c 0,0.255 0.057,0.312 0.227,0.312 0.34,0 0.51,-0.142 0.567,-0.454 0.34,-1.899 1.19,-3.6 2.182,-5.159 1.276,-1.984 2.325,-4.393 2.325,-6.888 0,-1.531 -0.539,-3.43 -0.539,-3.43 z" /><g
           id="g576"><path
             id="path578"
             style="fill:none;stroke:#000000;stroke-width:0.56692;stroke-linecap:butt;stroke-linejoin:miter;stroke-miterlimit:3.8637;stroke-dasharray:none;stroke-opacity:1"
             d="m 436.819,549.013 v 16.526" /></g><path
           id="path580"
           style="fill:#000000;fill-opacity:1;fill-rule:evenodd;stroke:none"
           d="m 434.041,537.023 -2.211,4.592 c 0,0.028 0,0.085 0,0.142 0,0.113 0.085,0.198 0.227,0.198 h 1.36 c 0.085,0 0.17,-0.028 0.227,-0.113 0,0 1.134,-2.381 1.162,-2.466 0,-0.029 0.085,-0.057 0.085,-0.057 0.057,0 0.057,0.028 0.085,0.057 0.057,0.085 1.134,2.466 1.134,2.466 0.057,0.113 0.142,0.141 0.227,0.141 0,0 0.085,0 0.085,-0.028 0.085,0 0.113,-0.113 0.113,-0.198 0,-0.057 0,-0.057 0,-0.142 l -2.126,-4.592 c 0,0 -0.028,-0.142 -0.198,-0.142 -0.057,0 -0.085,0.057 -0.17,0.142 z" /><path
           id="path582"
           style="fill:#000000;fill-opacity:1;fill-rule:evenodd;stroke:none"
           d="m 433.219,545.64 c -1.106,0 -1.956,0.624 -1.956,1.673 0,1.729 1.757,3.345 3.968,3.345 1.134,0 1.928,-0.624 1.928,-1.673 0,-1.672 -2.211,-3.345 -3.94,-3.345 z" /><g
           id="g584"><text
   id="text588"
   style="font-variant:normal;font-weight:normal;font-size:10.998px;font-family:BitstreamVeraSans;-inkscape-font-specification:BitstreamVeraSans-Roman;writing-mode:lr-tb;fill:#000000;fill-opacity:1;fill-rule:nonzero;stroke:none"
   transform="matrix(1,0,0,-1,386.306,519.193)"><tspan
     id="tspan586"
     y="0"
     x="0 4.3002181 11.283948 18.069714 22.567896">there</tspan></text>
</g><g
           id="g590"><path
             id="path592"
             style="fill:none;stroke:#000000;stroke-width:0.56692;stroke-linecap:butt;stroke-linejoin:miter;stroke-miterlimit:3.8637;stroke-dasharray:none;stroke-opacity:1"
             d="m 459.723,551.508 v 16.526" /></g><path
           id="path594"
           style="fill:#000000;fill-opacity:1;fill-rule:evenodd;stroke:none"
           d="m 456.066,548.135 c -1.049,0 -1.899,0.623 -1.899,1.644 0,1.729 1.729,3.373 3.94,3.373 1.162,0 1.956,-0.652 1.956,-1.672 0,-1.73 -2.183,-3.345 -3.997,-3.345 z" /><g
           id="g596"><text
   id="text600"
   style="font-variant:normal;font-weight:normal;font-size:10.998px;font-family:BitstreamVeraSans;-inkscape-font-specification:BitstreamVeraSans-Roman;writing-mode:lr-tb;fill:#000000;fill-opacity:1;fill-rule:nonzero;stroke:none"
   transform="matrix(1,0,0,-1,427.294,519.193)"><tspan
     id="tspan598"
     y="0"
     x="0 3.7943101 10.580076">for</tspan></text>
</g><g
           id="g602"><path
             id="path604"
             style="fill:none;stroke:#000000;stroke-width:0.56692;stroke-linecap:butt;stroke-linejoin:miter;stroke-miterlimit:3.8637;stroke-dasharray:none;stroke-opacity:1"
             d="m 480.586,551.508 v 16.526" /></g><path
           id="path606"
           style="fill:#000000;fill-opacity:1;fill-rule:evenodd;stroke:none"
           d="m 476.986,548.135 c -1.077,0 -1.956,0.623 -1.956,1.644 0,1.729 1.786,3.373 4.025,3.373 1.134,0 1.899,-0.652 1.899,-1.672 0,-1.73 -2.154,-3.345 -3.968,-3.345 z" /><path
           id="path608"
           style="fill:#000000;fill-opacity:1;fill-rule:evenodd;stroke:none"
           d="m 350.476,560.55 v -2.494 l 20.012,2.494 v 2.523 z" /><path
           id="path610"
           style="fill:#000000;fill-opacity:1;fill-rule:evenodd;stroke:none"
           d="m 459.723,568.034 v -2.551 h 20.948 v 2.551 z" /><g
           id="g612"><path
             id="path614"
             style="fill:none;stroke:#000000;stroke-width:0.76534;stroke-linecap:butt;stroke-linejoin:miter;stroke-miterlimit:3.8637;stroke-dasharray:none;stroke-opacity:1"
             d="M 491.641,563.073 V 543.231" /></g><g
           id="g616"><text
   id="text620"
   style="font-variant:normal;font-weight:normal;font-size:10.998px;font-family:BitstreamVeraSans;-inkscape-font-specification:BitstreamVeraSans-Roman;writing-mode:lr-tb;fill:#000000;fill-opacity:1;fill-rule:nonzero;stroke:none"
   transform="matrix(1,0,0,-1,449.49,519.193)"><tspan
     id="tspan618"
     y="0"
     x="0 10.789038">me</tspan></text>
</g><path
           id="path622"
           style="fill:#000000;fill-opacity:1;fill-rule:evenodd;stroke:none"
           d="m 508.592,550.658 c 1.814,0 4.082,-1.049 4.082,-2.467 0,-1.389 -1.049,-2.551 -4.309,-2.551 -2.976,0 -4.138,1.219 -4.138,2.551 0,1.361 1.644,2.467 4.365,2.467 z m -2.126,-1.248 c -0.028,-0.17 -0.028,-0.312 -0.028,-0.482 0,-0.623 0.255,-1.304 0.652,-1.757 0.113,-0.17 0.255,-0.312 0.425,-0.454 0.34,-0.255 0.652,-0.425 0.992,-0.538 0.17,-0.057 0.34,-0.085 0.51,-0.085 0.17,0 0.397,0.028 0.624,0.085 0.453,0.113 0.765,0.453 0.85,0.992 0,0.113 0.057,0.227 0.057,0.368 0,1.191 -1.134,2.693 -2.466,2.693 -0.652,0 -1.389,-0.113 -1.616,-0.822 z" /><g
           id="g624"><path
             id="path626"
             style="fill:none;stroke:#000000;stroke-width:0.76534;stroke-linecap:butt;stroke-linejoin:miter;stroke-miterlimit:3.8637;stroke-dasharray:none;stroke-opacity:1"
             d="M 546.123,563.073 V 543.231" /></g><g
           id="g628"><path
             id="path630"
             style="fill:none;stroke:#000000;stroke-width:0.76534;stroke-linecap:butt;stroke-linejoin:miter;stroke-miterlimit:3.8637;stroke-dasharray:none;stroke-opacity:1"
             d="M 48.756,563.073 V 543.231" /></g><g
           id="g632"><text
   id="text636"
   style="font-variant:normal;font-weight:normal;font-size:10.998px;font-family:BitstreamVeraSans;-inkscape-font-specification:BitstreamVeraSans-Roman;writing-mode:lr-tb;fill:#000000;fill-opacity:1;fill-rule:nonzero;stroke:none"
   transform="matrix(1,0,0,-1,473.102,519.193)"><tspan
     id="tspan634"
     y="0"
     x="0 4.3002181">to</tspan></text>
</g><g
           id="g638"><text
   id="text642"
   style="font-variant:normal;font-weight:normal;font-size:10.998px;font-family:BitstreamVeraSans;-inkscape-font-specification:BitstreamVeraSans-Roman;writing-mode:lr-tb;fill:#000000;fill-opacity:1;fill-rule:nonzero;stroke:none"
   transform="matrix(1,0,0,-1,499.493,519.193)"><tspan
     id="tspan640"
     y="0"
     x="0 6.9837298 13.681512">day</tspan></text>
</g><g
           id="g644"><text
   id="text648"
   style="font-variant:normal;font-weight:normal;font-size:9.014px;font-family:BitstreamVeraSans;-inkscape-font-specification:BitstreamVeraSans-Roman;writing-mode:lr-tb;fill:#000000;fill-opacity:1;fill-rule:nonzero;stroke:none"
   transform="matrix(1,0,0,-1,253.814,461.678)"><tspan
     id="tspan646"
     y="0"
     x="0 9.0139999 11.907494 17.514202 21.218956 23.814987 29.520849 35.118546 37.615421 40.112301 45.619854 48.513348 53.822594 57.527348 63.125042 68.921043 74.717049 79.620659 83.027954 85.623985 91.131538 96.837402 101.5337 104.42719 110.22319 115.92905 121.72506"> Eribella Productions 2020</tspan></text>
</g></g></g></g></svg>
